<svg width="37" height="39" viewBox="0 0 37 39" fill="none" xmlns="http://www.w3.org/2000/svg">
<g clip-path="url(#clip0_11_377)">
<mask id="mask0_11_377" style="mask-type:luminance" maskUnits="userSpaceOnUse" x="2" y="7" width="6" height="12">
<path d="M3.63099 7.16574C3.16471 6.98444 2.63517 7.21358 2.49617 7.69417C1.92113 9.68247 1.99434 11.8081 2.71901 13.7562C3.44256 15.7012 4.77102 17.3497 6.49765 18.4675C6.91997 18.7409 7.47292 18.5645 7.70625 18.1188V18.1188C7.94045 17.6715 7.76307 17.1232 7.34552 16.8393C6.01536 15.9348 4.99158 14.6355 4.42487 13.1122C3.85726 11.5864 3.782 9.92637 4.19671 8.36178C4.32556 7.87568 4.09969 7.34798 3.63099 7.16574V7.16574Z" fill="white"/>
</mask>
<g mask="url(#mask0_11_377)">
<path d="M3.63099 7.16574C3.16471 6.98444 2.63517 7.21358 2.49617 7.69417C1.92113 9.68247 1.99434 11.8081 2.71901 13.7562C3.44256 15.7012 4.77102 17.3497 6.49765 18.4675C6.91997 18.7409 7.47292 18.5645 7.70625 18.1188V18.1188C7.94045 17.6715 7.76307 17.1232 7.34552 16.8393C6.01536 15.9348 4.99158 14.6355 4.42487 13.1122C3.85726 11.5864 3.782 9.92637 4.19671 8.36178C4.32556 7.87568 4.09969 7.34798 3.63099 7.16574V7.16574Z" stroke="#FF8934" stroke-width="3"/>
</g>
<mask id="mask1_11_377" style="mask-type:luminance" maskUnits="userSpaceOnUse" x="6" y="0" width="13" height="5">
<path d="M18.333 4.49222C18.6896 4.14131 18.6978 3.56438 18.3165 3.24052C16.7389 1.90064 14.7702 1.09566 12.6963 0.957687C10.6257 0.819932 8.5773 1.35545 6.84972 2.47178C6.42717 2.74483 6.36128 3.32148 6.67209 3.71708V3.71708C6.98405 4.11414 7.55682 4.1772 7.98702 3.91282C9.35747 3.07061 10.9623 2.66972 12.5841 2.7776C14.2084 2.88566 15.7533 3.4978 17.0102 4.51768C17.4007 4.83455 17.9746 4.84496 18.333 4.49222V4.49222Z" fill="white"/>
</mask>
<g mask="url(#mask1_11_377)">
<path d="M18.333 4.49222C18.6896 4.14131 18.6978 3.56438 18.3165 3.24052C16.7389 1.90064 14.7702 1.09566 12.6963 0.957687C10.6257 0.819932 8.5773 1.35545 6.84972 2.47178C6.42717 2.74483 6.36128 3.32148 6.67209 3.71708V3.71708C6.98405 4.11414 7.55682 4.1772 7.98702 3.91282C9.35747 3.07061 10.9623 2.66972 12.5841 2.7776C14.2084 2.88566 15.7533 3.4978 17.0102 4.51768C17.4007 4.83455 17.9746 4.84496 18.333 4.49222V4.49222Z" stroke="#FF8934" stroke-width="3"/>
</g>
<path d="M9.5226 18.934C9.68738 19.2598 9.45874 19.6466 9.09385 19.6594L6.52369 19.749C6.12542 19.7629 5.87174 19.3281 6.07984 18.9882L7.51223 16.649C7.71666 16.3151 8.20812 16.3351 8.38481 16.6844L9.5226 18.934Z" fill="#FF8934"/>
<path d="M20.2623 5.44707C20.3645 5.79758 20.0688 6.13591 19.7078 6.08149L17.1647 5.69823C16.7707 5.63884 16.6011 5.16485 16.868 4.86892L18.7051 2.83211C18.9673 2.54141 19.4468 2.65117 19.5564 3.02699L20.2623 5.44707Z" fill="#FF8934"/>
<path d="M15.701 9.80923C15.701 12.1055 13.8271 13.9542 11.5317 13.9542C9.23618 13.9542 7.3623 12.1055 7.3623 9.80923C7.3623 7.51295 9.23618 5.66431 11.5317 5.66431C13.8271 5.66431 15.701 7.51295 15.701 9.80923Z" fill="#FF8934" stroke="#FF8934" stroke-width="2"/>
<path d="M21.3866 22.244C23.2707 22.244 24.7979 20.7257 24.7979 18.8527C24.7979 16.9797 23.2707 15.4614 21.3866 15.4614C19.5026 15.4614 17.9753 16.9797 17.9753 18.8527C17.9753 20.7257 19.5026 22.244 21.3866 22.244Z" fill="#FF8934" stroke="#FF8934" stroke-width="2"/>
<path d="M22.5237 36.563C23.7797 36.563 24.7979 35.5508 24.7979 34.3021C24.7979 33.0535 23.7797 32.0413 22.5237 32.0413C21.2677 32.0413 20.2495 33.0535 20.2495 34.3021C20.2495 35.5508 21.2677 36.563 22.5237 36.563Z" stroke="#FF8934" stroke-width="2"/>
<path d="M9.57202 13.2007L18.572 21.4905" stroke="#FF8934" stroke-width="2"/>
<path d="M20.2495 34.3021L18.7334 21.4905" stroke="#FF8934" stroke-width="2"/>
<path d="M24.7979 34.3019V18.4758" stroke="#FF8934" stroke-width="2"/>
<path d="M12.572 10.8962L21.572 18.8962" stroke="#FF8934" stroke-width="2"/>
<path d="M14.572 6.89624L24.072 16.8962" stroke="#FF8934" stroke-width="2"/>
</g>
<defs>
<clipPath id="clip0_11_377">
<rect width="37" height="39" fill="white"/>
</clipPath>
</defs>
</svg>
