<svg width="28" height="28" viewBox="0 0 28 28" fill="none" xmlns="http://www.w3.org/2000/svg">
<mask id="mask0_11_236" style="mask-type:luminance" maskUnits="userSpaceOnUse" x="18" y="13" width="6" height="8">
<path d="M18.3609 20.4851C18.485 20.8153 18.8495 20.9909 19.1736 20.8517C20.6158 20.2321 21.8125 19.1859 22.5763 17.8638C23.3283 16.562 23.6145 15.0724 23.4036 13.6149C23.3501 13.2454 22.9834 13.0218 22.6191 13.1031V13.1031C22.2411 13.1875 22.0116 13.5672 22.0554 13.9521C22.184 15.0835 21.9458 16.2313 21.363 17.2402C20.7702 18.2664 19.8561 19.0879 18.7536 19.5976C18.4163 19.7535 18.2302 20.1373 18.3609 20.4851V20.4851Z" fill="white"/>
</mask>
<g mask="url(#mask0_11_236)">
<path d="M18.3609 20.4851C18.485 20.8153 18.8495 20.9909 19.1736 20.8517C20.6158 20.2321 21.8125 19.1859 22.5763 17.8638C23.3283 16.562 23.6145 15.0724 23.4036 13.6149C23.3501 13.2454 22.9834 13.0218 22.6191 13.1031V13.1031C22.2411 13.1875 22.0116 13.5672 22.0554 13.9521C22.184 15.0835 21.9458 16.2313 21.363 17.2402C20.7702 18.2664 19.8561 19.0879 18.7536 19.5976C18.4163 19.7535 18.2302 20.1373 18.3609 20.4851V20.4851Z" stroke="#FF8934" stroke-width="1.5"/>
</g>
<mask id="mask1_11_236" style="mask-type:luminance" maskUnits="userSpaceOnUse" x="2" y="14" width="9" height="8">
<path d="M3.63761 14.551C3.25607 14.551 2.943 14.8612 2.98325 15.2406C3.15118 16.8236 3.8935 18.3118 5.09662 19.4467C6.31887 20.5995 7.92779 21.3038 9.63588 21.4472C9.99451 21.4773 10.2868 21.1827 10.2868 20.8228V20.8228C10.2868 20.4629 9.99426 20.1747 9.63628 20.1376C8.29531 19.9987 7.03661 19.4334 6.07361 18.5251C5.12975 17.6348 4.53525 16.4766 4.37335 15.2399C4.32383 14.8616 4.01915 14.551 3.63761 14.551V14.551Z" fill="white"/>
</mask>
<g mask="url(#mask1_11_236)">
<path d="M3.63761 14.551C3.25607 14.551 2.943 14.8612 2.98325 15.2406C3.15118 16.8236 3.8935 18.3118 5.09662 19.4467C6.31887 20.5995 7.92779 21.3038 9.63588 21.4472C9.99451 21.4773 10.2868 21.1827 10.2868 20.8228V20.8228C10.2868 20.4629 9.99426 20.1747 9.63628 20.1376C8.29531 19.9987 7.03661 19.4334 6.07361 18.5251C5.12975 17.6348 4.53525 16.4766 4.37335 15.2399C4.32383 14.8616 4.01915 14.551 3.63761 14.551V14.551Z" stroke="#FF8934" stroke-width="1.5"/>
</g>
<path d="M22.1744 12.022C22.3378 11.7069 22.7684 11.6577 22.9987 11.9278L23.9291 13.019C24.1922 13.3276 23.9979 13.8045 23.5941 13.8413L22.0235 13.9846C21.63 14.0205 21.3523 13.6073 21.5342 13.2565L22.1744 12.022Z" fill="#FF8934"/>
<path d="M3.63031 13.024C3.85607 12.7481 4.28982 12.7903 4.45808 13.1046L5.122 14.3448C5.30857 14.6933 5.03603 15.1103 4.64195 15.0792L3.06485 14.9551C2.66238 14.9234 2.46146 14.4524 2.71712 14.14L3.63031 13.024Z" fill="#FF8934"/>
<path d="M9.17878 5.68117C9.17878 7.32978 7.76071 8.65701 6.0236 8.65701C4.28648 8.65701 2.86841 7.32978 2.86841 5.68117C2.86841 4.03256 4.28648 2.70532 6.0236 2.70532C7.76071 2.70532 9.17878 4.03256 9.17878 5.68117Z" fill="#FF8934" stroke="#FF8934" stroke-width="1.5"/>
<path d="M13.4814 14.6086C14.9072 14.6086 16.0629 13.5185 16.0629 12.1738C16.0629 10.8291 14.9072 9.73901 13.4814 9.73901C12.0557 9.73901 10.8999 10.8291 10.8999 12.1738C10.8999 13.5185 12.0557 14.6086 13.4814 14.6086Z" fill="#FF8934" stroke="#FF8934" stroke-width="1.5"/>
<path d="M14.3419 24.889C15.2924 24.889 16.0629 24.1622 16.0629 23.2658C16.0629 22.3693 15.2924 21.6426 14.3419 21.6426C13.3914 21.6426 12.6208 22.3693 12.6208 23.2658C12.6208 24.1622 13.3914 24.889 14.3419 24.889Z" stroke="#FF8934" stroke-width="1.5"/>
<path d="M4.54053 8.11597L11.3513 14.0677" stroke="#FF8934" stroke-width="1.5"/>
<path d="M12.6207 23.2657L11.4734 14.0676" stroke="#FF8934" stroke-width="1.5"/>
<path d="M16.0627 23.2656V11.9033" stroke="#FF8934" stroke-width="1.5"/>
<path d="M6.81079 6.46143L13.6216 12.205" stroke="#FF8934" stroke-width="1.5"/>
<path d="M8.32422 3.58984L15.5134 10.7693" stroke="#FF8934" stroke-width="1.5"/>
</svg>
