<svg width="28" height="28" viewBox="0 0 28 28" fill="none" xmlns="http://www.w3.org/2000/svg">
<g clip-path="url(#clip0_11_377)">
<mask id="mask0_11_377" style="mask-type:luminance" maskUnits="userSpaceOnUse" x="1" y="5" width="5" height="9">
<path d="M2.76317 5.14416C2.41062 5.0151 2.00899 5.18122 1.90236 5.52703C1.46119 6.95772 1.51049 8.48541 2.0536 9.88366C2.59586 11.2797 3.59702 12.4611 4.90121 13.2599C5.22021 13.4553 5.63941 13.327 5.81738 13.006V13.006C5.99601 12.6839 5.86328 12.2903 5.54792 12.0873C4.54333 11.4407 3.77187 10.5096 3.34715 9.41619C2.92175 8.321 2.86955 7.12802 3.18809 6.00232C3.28706 5.65258 3.11755 5.27389 2.76317 5.14416V5.14416Z" fill="white"/>
</mask>
<g mask="url(#mask0_11_377)">
<path d="M2.76317 5.14416C2.41062 5.0151 2.00899 5.18122 1.90236 5.52703C1.46119 6.95772 1.51049 8.48541 2.0536 9.88366C2.59586 11.2797 3.59702 12.4611 4.90121 13.2599C5.22021 13.4553 5.63941 13.327 5.81738 13.006V13.006C5.99601 12.6839 5.86328 12.2903 5.54792 12.0873C4.54333 11.4407 3.77187 10.5096 3.34715 9.41619C2.92175 8.321 2.86955 7.12802 3.18809 6.00232C3.28706 5.65258 3.11755 5.27389 2.76317 5.14416V5.14416Z" stroke="#FF8934" stroke-width="1.5"/>
</g>
<mask id="mask1_11_377" style="mask-type:luminance" maskUnits="userSpaceOnUse" x="4" y="0" width="11" height="4">
<path d="M13.8761 3.28411C14.1404 3.0331 14.1376 2.61432 13.8441 2.37581C12.6336 1.39204 11.1361 0.791607 9.56915 0.672655C8.00371 0.553817 6.4651 0.922751 5.17736 1.71525C4.86287 1.90879 4.8221 2.32584 5.06277 2.61531V2.61531C5.30399 2.90543 5.73625 2.95667 6.05613 2.76965C7.07858 2.17185 8.28481 1.89604 9.51141 1.98915C10.7392 2.08235 11.9145 2.53972 12.8784 3.2896C13.1781 3.52272 13.611 3.53591 13.8761 3.28411V3.28411Z" fill="white"/>
</mask>
<g mask="url(#mask1_11_377)">
<path d="M13.8761 3.28411C14.1404 3.0331 14.1376 2.61432 13.8441 2.37581C12.6336 1.39204 11.1361 0.791607 9.56915 0.672655C8.00371 0.553817 6.4651 0.922751 5.17736 1.71525C4.86287 1.90879 4.8221 2.32584 5.06277 2.61531V2.61531C5.30399 2.90543 5.73625 2.95667 6.05613 2.76965C7.07858 2.17185 8.28481 1.89604 9.51141 1.98915C10.7392 2.08235 11.9145 2.53972 12.8784 3.2896C13.1781 3.52272 13.611 3.53591 13.8761 3.28411V3.28411Z" stroke="#FF8934" stroke-width="1.5"/>
</g>
<path d="M7.10776 13.4088C7.27737 13.7269 7.03786 14.1093 6.66122 14.1218L5.1761 14.171C4.77007 14.1844 4.51631 13.7639 4.73032 13.4324L5.558 12.15C5.76873 11.8235 6.27028 11.8379 6.45031 12.1756L7.10776 13.4088Z" fill="#FF8934"/>
<path d="M15.2753 3.7211C15.3801 4.06192 15.0786 4.38965 14.7089 4.3368L13.2406 4.12686C12.8355 4.06893 12.6596 3.60631 12.9332 3.31849L13.994 2.2028C14.2626 1.92026 14.755 2.02885 14.8677 2.39547L15.2753 3.7211Z" fill="#FF8934"/>
<path d="M11.8819 7.0425C11.8819 8.69111 10.4638 10.0183 8.72672 10.0183C6.9896 10.0183 5.57153 8.69111 5.57153 7.0425C5.57153 5.39388 6.9896 4.06665 8.72672 4.06665C10.4638 4.06665 11.8819 5.39388 11.8819 7.0425Z" fill="#FF8934" stroke="#FF8934" stroke-width="1.5"/>
<path d="M16.1845 15.9702C17.6103 15.9702 18.7661 14.8801 18.7661 13.5354C18.7661 12.1907 17.6103 11.1006 16.1845 11.1006C14.7588 11.1006 13.603 12.1907 13.603 13.5354C13.603 14.8801 14.7588 15.9702 16.1845 15.9702Z" fill="#FF8934" stroke="#FF8934" stroke-width="1.5"/>
<path d="M17.045 26.2505C17.9955 26.2505 18.766 25.5238 18.766 24.6273C18.766 23.7309 17.9955 23.0042 17.045 23.0042C16.0945 23.0042 15.324 23.7309 15.324 24.6273C15.324 25.5238 16.0945 26.2505 17.045 26.2505Z" stroke="#FF8934" stroke-width="1.5"/>
<path d="M7.24365 9.47754L14.0545 15.4292" stroke="#FF8934" stroke-width="1.5"/>
<path d="M15.3241 24.6273L14.1768 15.4292" stroke="#FF8934" stroke-width="1.5"/>
<path d="M18.7659 24.627V13.2646" stroke="#FF8934" stroke-width="1.5"/>
<path d="M9.51392 7.823L16.3247 13.5666" stroke="#FF8934" stroke-width="1.5"/>
<path d="M11.0276 4.95117L18.2168 12.1307" stroke="#FF8934" stroke-width="1.5"/>
</g>
<defs>
<clipPath id="clip0_11_377">
<rect width="28" height="28" fill="white"/>
</clipPath>
</defs>
</svg>
