<svg width="37" height="39" viewBox="0 0 37 39" fill="none" xmlns="http://www.w3.org/2000/svg">
<mask id="mask0_11_236" style="mask-type:luminance" maskUnits="userSpaceOnUse" x="24" y="18" width="8" height="12">
<path d="M24.2524 28.5046C24.4204 28.9758 24.9402 29.2263 25.3946 29.0169C27.2744 28.1508 28.8339 26.7045 29.8328 24.8818C30.8302 23.062 31.2075 20.9787 30.923 18.9416C30.8534 18.4433 30.3582 18.1406 29.8685 18.2558V18.2558C29.377 18.3714 29.0784 18.8643 29.1369 19.3658C29.3233 20.9636 29.0108 22.5879 28.2296 24.0132C27.4472 25.4409 26.2412 26.584 24.7867 27.2942C24.3348 27.5148 24.0835 28.0309 24.2524 28.5046V28.5046Z" fill="white"/>
</mask>
<g mask="url(#mask0_11_236)">
<path d="M24.2524 28.5046C24.4204 28.9758 24.9402 29.2263 25.3946 29.0169C27.2744 28.1508 28.8339 26.7045 29.8328 24.8818C30.8302 23.062 31.2075 20.9787 30.923 18.9416C30.8534 18.4433 30.3582 18.1406 29.8685 18.2558V18.2558C29.377 18.3714 29.0784 18.8643 29.1369 19.3658C29.3233 20.9636 29.0108 22.5879 28.2296 24.0132C27.4472 25.4409 26.2412 26.584 24.7867 27.2942C24.3348 27.5148 24.0835 28.0309 24.2524 28.5046V28.5046Z" stroke="#FF8934" stroke-width="3"/>
</g>
<mask id="mask1_11_236" style="mask-type:luminance" maskUnits="userSpaceOnUse" x="3" y="20" width="11" height="10">
<path d="M4.80669 20.2676C4.30251 20.2676 3.88929 20.6773 3.9372 21.1791C4.14944 23.4023 5.13308 25.4941 6.73467 27.0865C8.33875 28.6813 10.4468 29.6598 12.6867 29.8688C13.1859 29.9153 13.5931 29.5046 13.5931 29.0033V29.0033C13.5931 28.502 13.1854 28.1011 12.6874 28.0437C10.9327 27.8418 9.28718 27.0571 8.02569 25.8029C6.76669 24.5512 5.9781 22.9192 5.77303 21.1784C5.71404 20.6777 5.31086 20.2676 4.80669 20.2676V20.2676Z" fill="white"/>
</mask>
<g mask="url(#mask1_11_236)">
<path d="M4.80669 20.2676C4.30251 20.2676 3.88929 20.6773 3.9372 21.1791C4.14944 23.4023 5.13308 25.4941 6.73467 27.0865C8.33875 28.6813 10.4468 29.6598 12.6867 29.8688C13.1859 29.9153 13.5931 29.5046 13.5931 29.0033V29.0033C13.5931 28.502 13.1854 28.1011 12.6874 28.0437C10.9327 27.8418 9.28718 27.0571 8.02569 25.8029C6.76669 24.5512 5.9781 22.9192 5.77303 21.1784C5.71404 20.6777 5.31086 20.2676 4.80669 20.2676V20.2676Z" stroke="#FF8934" stroke-width="3"/>
</g>
<path d="M29.4085 16.5281C29.5697 16.2005 30.0163 16.1505 30.2459 16.4344L31.8633 18.4338C32.1139 18.7437 31.9191 19.2079 31.5224 19.246L28.7921 19.5085C28.4024 19.546 28.1228 19.1413 28.2956 18.7901L29.4085 16.5281Z" fill="#FF8934"/>
<path d="M4.9403 17.9562C5.16516 17.6666 5.615 17.7095 5.78106 18.0364L6.93297 20.3045C7.11021 20.6534 6.83589 21.0615 6.44583 21.0292L3.70952 20.8021C3.31394 20.7693 3.1125 20.3108 3.3559 19.9972L4.9403 17.9562Z" fill="#FF8934"/>
<path d="M12.129 7.91299C12.129 10.2093 10.2551 12.0579 7.95964 12.0579C5.66416 12.0579 3.79028 10.2093 3.79028 7.91299C3.79028 5.61671 5.66416 3.76807 7.95964 3.76807C10.2551 3.76807 12.129 5.61671 12.129 7.91299Z" fill="#FF8934" stroke="#FF8934" stroke-width="2"/>
<path d="M17.8146 20.3478C19.6986 20.3478 21.2259 18.8295 21.2259 16.9565C21.2259 15.0835 19.6986 13.5652 17.8146 13.5652C15.9306 13.5652 14.4033 15.0835 14.4033 16.9565C14.4033 18.8295 15.9306 20.3478 17.8146 20.3478Z" fill="#FF8934" stroke="#FF8934" stroke-width="2"/>
<path d="M18.9517 34.6668C20.2077 34.6668 21.2259 33.6545 21.2259 32.4059C21.2259 31.1572 20.2077 30.145 18.9517 30.145C17.6957 30.145 16.6775 31.1572 16.6775 32.4059C16.6775 33.6545 17.6957 34.6668 18.9517 34.6668Z" stroke="#FF8934" stroke-width="2"/>
<path d="M6 11.3044L15 19.5943" stroke="#FF8934" stroke-width="2"/>
<path d="M16.6775 32.4058L15.1614 19.5942" stroke="#FF8934" stroke-width="2"/>
<path d="M21.2258 32.4057V16.5796" stroke="#FF8934" stroke-width="2"/>
<path d="M9 9L18 17" stroke="#FF8934" stroke-width="2"/>
<path d="M11 5L20.5 15" stroke="#FF8934" stroke-width="2"/>
</svg>
