<svg width="37" height="39" viewBox="0 0 37 39" fill="none" xmlns="http://www.w3.org/2000/svg">
<g clip-path="url(#clip0_11_350)">
<mask id="mask0_11_350" style="mask-type:luminance" maskUnits="userSpaceOnUse" x="24" y="2" width="4" height="13">
<path d="M24.5523 14.2784C24.9144 14.6235 25.4913 14.6133 25.8028 14.2218C27.0916 12.6022 27.8332 10.6087 27.9048 8.53152C27.9763 6.45753 27.3755 4.42734 26.2045 2.73633C25.9181 2.32272 25.3397 2.27531 24.9542 2.59861V2.59861C24.5673 2.9231 24.5226 3.49759 24.8006 3.91912C25.6862 5.26195 26.1382 6.85312 26.0822 8.47752C26.0261 10.1045 25.4637 11.6682 24.4845 12.957C24.1803 13.3574 24.1882 13.9314 24.5523 14.2784V14.2784Z" fill="white"/>
</mask>
<g mask="url(#mask0_11_350)">
<path d="M24.5523 14.2784C24.9144 14.6235 25.4913 14.6133 25.8028 14.2218C27.0916 12.6022 27.8332 10.6087 27.9048 8.53152C27.9763 6.45753 27.3755 4.42734 26.2045 2.73633C25.9181 2.32272 25.3397 2.27531 24.9542 2.59861V2.59861C24.5673 2.9231 24.5226 3.49759 24.8006 3.91912C25.6862 5.26195 26.1382 6.85312 26.0822 8.47752C26.0261 10.1045 25.4637 11.6682 24.4845 12.957C24.1803 13.3574 24.1882 13.9314 24.5523 14.2784V14.2784Z" stroke="#FF8934" stroke-width="3"/>
</g>
<mask id="mask1_11_350" style="mask-type:luminance" maskUnits="userSpaceOnUse" x="1" y="17" width="13" height="6">
<path d="M1.92055 17.1497C1.48815 17.4013 1.33727 17.9582 1.62646 18.3664C2.82287 20.0554 4.53074 21.3231 6.50577 21.9706C8.47772 22.6171 10.5949 22.6058 12.5452 21.9523C13.0222 21.7924 13.2289 21.2501 13.0258 20.7898V20.7898C12.822 20.3279 12.2827 20.1248 11.8004 20.2744C10.264 20.7508 8.6099 20.7416 7.06543 20.2352C5.51847 19.7281 4.17345 18.7523 3.20846 17.4527C2.90864 17.049 2.3552 16.8967 1.92055 17.1497V17.1497Z" fill="white"/>
</mask>
<g mask="url(#mask1_11_350)">
<path d="M1.92055 17.1497C1.48815 17.4013 1.33727 17.9582 1.62646 18.3664C2.82287 20.0554 4.53074 21.3231 6.50577 21.9706C8.47772 22.6171 10.5949 22.6058 12.5452 21.9523C13.0222 21.7924 13.2289 21.2501 13.0258 20.7898V20.7898C12.822 20.3279 12.2827 20.1248 11.8004 20.2744C10.264 20.7508 8.6099 20.7416 7.06543 20.2352C5.51847 19.7281 4.17345 18.7523 3.20846 17.4527C2.90864 17.049 2.3552 16.8967 1.92055 17.1497V17.1497Z" stroke="#FF8934" stroke-width="3"/>
</g>
<path d="M23.5849 1.15345C23.5566 0.789442 23.9153 0.518802 24.2575 0.645956L26.6683 1.5416C27.0418 1.68039 27.1108 2.17906 26.789 2.41409L24.5739 4.03177C24.2577 4.26265 23.8109 4.05708 23.7805 3.66677L23.5849 1.15345Z" fill="#FF8934"/>
<path d="M1.46041 15.7142C1.53768 15.3573 1.95894 15.2009 2.25034 15.4209L4.30288 16.9704C4.62094 17.2105 4.54402 17.708 4.1683 17.8409L1.58224 18.7552C1.21315 18.8857 0.844045 18.5606 0.926896 18.178L1.46041 15.7142Z" fill="#FF8934"/>
<path d="M13.701 7.80923C13.701 10.1055 11.8271 11.9542 9.53166 11.9542C7.23618 11.9542 5.3623 10.1055 5.3623 7.80923C5.3623 5.51295 7.23618 3.66431 9.53166 3.66431C11.8271 3.66431 13.701 5.51295 13.701 7.80923Z" fill="#FF8934" stroke="#FF8934" stroke-width="2"/>
<path d="M19.3866 20.244C21.2707 20.244 22.7979 18.7257 22.7979 16.8527C22.7979 14.9797 21.2707 13.4614 19.3866 13.4614C17.5026 13.4614 15.9753 14.9797 15.9753 16.8527C15.9753 18.7257 17.5026 20.244 19.3866 20.244Z" fill="#FF8934" stroke="#FF8934" stroke-width="2"/>
<path d="M20.5237 34.563C21.7797 34.563 22.7979 33.5508 22.7979 32.3021C22.7979 31.0535 21.7797 30.0413 20.5237 30.0413C19.2677 30.0413 18.2495 31.0535 18.2495 32.3021C18.2495 33.5508 19.2677 34.563 20.5237 34.563Z" stroke="#FF8934" stroke-width="2"/>
<path d="M7.57202 11.2007L16.572 19.4905" stroke="#FF8934" stroke-width="2"/>
<path d="M18.2495 32.3021L16.7334 19.4905" stroke="#FF8934" stroke-width="2"/>
<path d="M22.7979 32.3019V16.4758" stroke="#FF8934" stroke-width="2"/>
<path d="M10.572 8.89624L19.572 16.8962" stroke="#FF8934" stroke-width="2"/>
<path d="M12.572 4.89624L22.072 14.8962" stroke="#FF8934" stroke-width="2"/>
</g>
<defs>
<clipPath id="clip0_11_350">
<rect width="37" height="39" fill="white"/>
</clipPath>
</defs>
</svg>
