<svg width="28" height="28" viewBox="0 0 28 28" fill="none" xmlns="http://www.w3.org/2000/svg">
<g clip-path="url(#clip0_11_350)">
<mask id="mask0_11_350" style="mask-type:luminance" maskUnits="userSpaceOnUse" x="18" y="1" width="4" height="10">
<path d="M18.661 10.2497C18.9366 10.5009 19.3681 10.4986 19.5961 10.2202C20.5403 9.06712 21.0697 7.64055 21.0962 6.14796C21.1227 4.65798 20.6464 3.19369 19.7475 1.96823C19.5275 1.66834 19.0938 1.62915 18.8094 1.85814V1.85814C18.5239 2.08809 18.498 2.50094 18.7119 2.80661C19.3923 3.77928 19.7514 4.92661 19.7307 6.09343C19.71 7.26235 19.3092 8.38137 18.5928 9.29928C18.3702 9.58441 18.3838 9.99714 18.661 10.2497V10.2497Z" fill="white"/>
</mask>
<g mask="url(#mask0_11_350)">
<path d="M18.661 10.2497C18.9366 10.5009 19.3681 10.4986 19.5961 10.2202C20.5403 9.06712 21.0697 7.64055 21.0962 6.14796C21.1227 4.65798 20.6464 3.19369 19.7475 1.96823C19.5275 1.66834 19.0938 1.62915 18.8094 1.85814V1.85814C18.5239 2.08809 18.498 2.50094 18.7119 2.80661C19.3923 3.77928 19.7514 4.92661 19.7307 6.09343C19.71 7.26235 19.3092 8.38137 18.5928 9.29928C18.3702 9.58441 18.3838 9.99714 18.661 10.2497V10.2497Z" stroke="#FF8934" stroke-width="1.5"/>
</g>
<mask id="mask1_11_350" style="mask-type:luminance" maskUnits="userSpaceOnUse" x="1" y="12" width="9" height="5">
<path d="M1.45836 12.2799C1.1357 12.4619 1.03419 12.8767 1.26586 13.18C2.19343 14.3944 3.49173 15.3087 4.97664 15.7807C6.46896 16.2551 8.05796 16.2536 9.50894 15.7865C9.85807 15.6741 9.99896 15.2804 9.83684 14.945V14.945C9.67657 14.6133 9.28041 14.4645 8.93289 14.5688C7.78487 14.9137 6.53721 14.9033 5.36318 14.5301C4.19495 14.1588 3.16905 13.4502 2.42145 12.5095C2.1877 12.2154 1.77583 12.1008 1.45836 12.2799V12.2799Z" fill="white"/>
</mask>
<g mask="url(#mask1_11_350)">
<path d="M1.45836 12.2799C1.1357 12.4619 1.03419 12.8767 1.26586 13.18C2.19343 14.3944 3.49173 15.3087 4.97664 15.7807C6.46896 16.2551 8.05796 16.2536 9.50894 15.7865C9.85807 15.6741 9.99896 15.2804 9.83684 14.945V14.945C9.67657 14.6133 9.28041 14.4645 8.93289 14.5688C7.78487 14.9137 6.53721 14.9033 5.36318 14.5301C4.19495 14.1588 3.16905 13.4502 2.42145 12.5095C2.1877 12.2154 1.77583 12.1008 1.45836 12.2799V12.2799Z" stroke="#FF8934" stroke-width="1.5"/>
</g>
<path d="M17.8632 1.0147C17.8343 0.662382 18.1906 0.405223 18.538 0.527666L19.9281 1.01764C20.3156 1.15422 20.3951 1.64847 20.0662 1.87635L18.7889 2.76131C18.467 2.98429 18.0076 2.7742 17.976 2.38964L17.8632 1.0147Z" fill="#FF8934"/>
<path d="M1.06567 11.4547C1.14413 11.1109 1.55248 10.9638 1.84554 11.1737L3.02698 12.0199C3.35997 12.2584 3.29145 12.7629 2.90864 12.8913L1.42011 13.3906C1.04674 13.5159 0.671635 13.181 0.758579 12.8001L1.06567 11.4547Z" fill="#FF8934"/>
<path d="M10.3682 5.6067C10.3682 7.25532 8.95017 8.58255 7.21305 8.58255C5.47593 8.58255 4.05786 7.25532 4.05786 5.6067C4.05786 3.95809 5.47593 2.63086 7.21305 2.63086C8.95017 2.63086 10.3682 3.95809 10.3682 5.6067Z" fill="#FF8934" stroke="#FF8934" stroke-width="1.5"/>
<path d="M14.6709 14.5341C16.0966 14.5341 17.2524 13.444 17.2524 12.0993C17.2524 10.7546 16.0966 9.66455 14.6709 9.66455C13.2451 9.66455 12.0894 10.7546 12.0894 12.0993C12.0894 13.444 13.2451 14.5341 14.6709 14.5341Z" fill="#FF8934" stroke="#FF8934" stroke-width="1.5"/>
<path d="M15.5316 24.8145C16.482 24.8145 17.2526 24.0878 17.2526 23.1913C17.2526 22.2948 16.482 21.5681 15.5316 21.5681C14.5811 21.5681 13.8105 22.2948 13.8105 23.1913C13.8105 24.0878 14.5811 24.8145 15.5316 24.8145Z" stroke="#FF8934" stroke-width="1.5"/>
<path d="M5.73022 8.0415L12.541 13.9932" stroke="#FF8934" stroke-width="1.5"/>
<path d="M13.8104 23.1912L12.6631 13.9932" stroke="#FF8934" stroke-width="1.5"/>
<path d="M17.2524 23.1912V11.8289" stroke="#FF8934" stroke-width="1.5"/>
<path d="M8.00049 6.38696L14.8113 12.1306" stroke="#FF8934" stroke-width="1.5"/>
<path d="M9.51392 3.51514L16.7031 10.6946" stroke="#FF8934" stroke-width="1.5"/>
</g>
<defs>
<clipPath id="clip0_11_350">
<rect width="28" height="28" fill="white"/>
</clipPath>
</defs>
</svg>
