{  "asset": {    "version": "2.0",    "generator": "THREE.GLTFExporter"  },  "scenes": [    {      "name": "AuxScene",      "nodes": [        1      ]    }  ],  "scene": 0,  "nodes": [    {      "mesh": 0    },    {      "children": [        0      ]    }  ],  "bufferViews": [    {      "buffer": 0,      "byteOffset": 0,      "byteLength": 47808,      "target": 34962,      "byteStride": 12    },    {      "buffer": 0,      "byteOffset": 47808,      "byteLength": 47808,      "target": 34962,      "byteStride": 12    }  ],  "buffers": [    {      "byteLength": 95616,      "uri": "data:application/octet-stream;base64,"    }  ],  "accessors": [    {      "bufferView": 0,      "componentType": 5126,      "count": 3984,      "max": [        9.379161834716797,        17.874046325683594,        1.298403024673462      ],      "min": [        -9.379161834716797,        -17.874048233032227,        -1.298403024673462      ],      "type": "VEC3"    },    {      "bufferView": 1,      "componentType": 5126,      "count": 3984,      "max": [        0.999969482421875,        0.999969482421875,        1      ],      "min": [        -0.999969482421875,        -0.999969482421875,        -1      ],      "type": "VEC3"    }  ],  "materials": [    {      "pbrMetallicRoughness": {        "baseColorFactor": [          0.6038273388475408,          0.6038273388475408,          0.6038273388475408,          1        ],        "metallicFactor": 0.5,        "roughnessFactor": 0.5      },      "doubleSided": true,      "name": "mat0"    }  ],  "meshes": [    {      "primitives": [        {          "mode": 4,          "attributes": {            "POSITION": 0,            "NORMAL": 1          },          "material": 0        }      ]    }  ]}