{  "asset": {    "version": "2.0",    "generator": "THREE.GLTFExporter"  },  "scenes": [    {      "name": "AuxScene",      "nodes": [        1      ]    }  ],  "scene": 0,  "nodes": [    {      "mesh": 0    },    {      "children": [        0      ]    }  ],  "bufferViews": [    {      "buffer": 0,      "byteOffset": 0,      "byteLength": 54576,      "target": 34962,      "byteStride": 12    },    {      "buffer": 0,      "byteOffset": 54576,      "byteLength": 54576,      "target": 34962,      "byteStride": 12    }  ],  "buffers": [    {      "byteLength": 109152,      "uri": "data:application/octet-stream;base64,"    }  ],  "accessors": [    {      "bufferView": 0,      "componentType": 5126,      "count": 4548,      "max": [        8.978679656982422,        19.66478157043457,        2.0994629859924316      ],      "min": [        -8.978679656982422,        -19.664779663085938,        -2.0994629859924316      ],      "type": "VEC3"    },    {      "bufferView": 1,      "componentType": 5126,      "count": 4548,      "max": [        1,        0.9950559735298157,        0.99951171875      ],      "min": [        -1,        -0.9950559735298157,        -0.9953306913375854      ],      "type": "VEC3"    }  ],  "materials": [    {      "pbrMetallicRoughness": {        "baseColorFactor": [          0.6038273388475408,          0.6038273388475408,          0.6038273388475408,          1        ],        "metallicFactor": 0.5,        "roughnessFactor": 0.5      },      "doubleSided": true,      "name": "mat0"    }  ],  "meshes": [    {      "primitives": [        {          "mode": 4,          "attributes": {            "POSITION": 0,            "NORMAL": 1          },          "material": 0        }      ]    }  ]}