{  "asset": {    "version": "2.0",    "generator": "THREE.GLTFExporter"  },  "scenes": [    {      "name": "AuxScene",      "nodes": [        1      ]    }  ],  "scene": 0,  "nodes": [    {      "mesh": 0    },    {      "children": [        0      ]    }  ],  "bufferViews": [    {      "buffer": 0,      "byteOffset": 0,      "byteLength": 269496,      "target": 34962,      "byteStride": 12    },    {      "buffer": 0,      "byteOffset": 269496,      "byteLength": 269496,      "target": 34962,      "byteStride": 12    }  ],  "buffers": [    {      "byteLength": 538992,      "uri": "data:application/octet-stream;base64,"    }  ],  "accessors": [    {      "bufferView": 0,      "componentType": 5126,      "count": 22458,      "max": [        14.347844123840332,        22.43324089050293,        3.117210626602173      ],      "min": [        -14.347845077514648,        -22.433244705200195,        -3.117210626602173      ],      "type": "VEC3"    },    {      "bufferView": 1,      "componentType": 5126,      "count": 22458,      "max": [        1,        1,        1      ],      "min": [        -1,        -1,        -1      ],      "type": "VEC3"    }  ],  "materials": [    {      "pbrMetallicRoughness": {        "baseColorFactor": [          0.6038273388475408,          0.6038273388475408,          0.6038273388475408,          1        ],        "metallicFactor": 0.5,        "roughnessFactor": 0.5      },      "doubleSided": true,      "name": "mat0"    }  ],  "meshes": [    {      "primitives": [        {          "mode": 4,          "attributes": {            "POSITION": 0,            "NORMAL": 1          },          "material": 0        }      ]    }  ]}