{  "asset": {    "version": "2.0",    "generator": "THREE.GLTFExporter"  },  "scenes": [    {      "name": "AuxScene",      "nodes": [        1      ]    }  ],  "scene": 0,  "nodes": [    {      "mesh": 0    },    {      "children": [        0      ]    }  ],  "bufferViews": [    {      "buffer": 0,      "byteOffset": 0,      "byteLength": 4752,      "target": 34962,      "byteStride": 12    },    {      "buffer": 0,      "byteOffset": 4752,      "byteLength": 4752,      "target": 34962,      "byteStride": 12    }  ],  "buffers": [    {      "byteLength": 9504,      "uri": "data:application/octet-stream;base64,"    }  ],  "accessors": [    {      "bufferView": 0,      "componentType": 5126,      "count": 396,      "max": [        6.698619365692139,        8.813078880310059,        3.401798963546753      ],      "min": [        -6.698619842529297,        -8.813078880310059,        -3.401798963546753      ],      "type": "VEC3"    },    {      "bufferView": 1,      "componentType": 5126,      "count": 396,      "max": [        1,        1,        1      ],      "min": [        -1,        -1,        -1      ],      "type": "VEC3"    }  ],  "materials": [    {      "pbrMetallicRoughness": {        "baseColorFactor": [          0.6038273388475408,          0.6038273388475408,          0.6038273388475408,          1        ],        "metallicFactor": 0.5,        "roughnessFactor": 0.5      },      "doubleSided": true,      "name": "mat0"    }  ],  "meshes": [    {      "primitives": [        {          "mode": 4,          "attributes": {            "POSITION": 0,            "NORMAL": 1          },          "material": 0        }      ]    }  ]}