{  "asset": {    "version": "2.0",    "generator": "THREE.GLTFExporter"  },  "scenes": [    {      "name": "AuxScene",      "nodes": [        1      ]    }  ],  "scene": 0,  "nodes": [    {      "mesh": 0    },    {      "children": [        0      ]    }  ],  "bufferViews": [    {      "buffer": 0,      "byteOffset": 0,      "byteLength": 200448,      "target": 34962,      "byteStride": 12    },    {      "buffer": 0,      "byteOffset": 200448,      "byteLength": 200448,      "target": 34962,      "byteStride": 12    }  ],  "buffers": [    {      "byteLength": 400896,      "uri": "data:application/octet-stream;base64,"    }  ],  "accessors": [    {      "bufferView": 0,      "componentType": 5126,      "count": 16704,      "max": [        25.709041595458984,        42.92459487915039,        2.758000373840332      ],      "min": [        -25.70903968811035,        -42.92459487915039,        -2.758000373840332      ],      "type": "VEC3"    },    {      "bufferView": 1,      "componentType": 5126,      "count": 16704,      "max": [        0.9985350966453552,        1,        1      ],      "min": [        -0.9985350966453552,        -1,        -1      ],      "type": "VEC3"    }  ],  "materials": [    {      "pbrMetallicRoughness": {        "baseColorFactor": [          0.6038273388475408,          0.6038273388475408,          0.6038273388475408,          1        ],        "metallicFactor": 0.5,        "roughnessFactor": 0.5      },      "doubleSided": true,      "name": "mat0"    }  ],  "meshes": [    {      "primitives": [        {          "mode": 4,          "attributes": {            "POSITION": 0,            "NORMAL": 1          },          "material": 0        }      ]    }  ]}