{  "asset": {    "version": "2.0",    "generator": "THREE.GLTFExporter"  },  "scenes": [    {      "name": "AuxScene",      "nodes": [        1      ]    }  ],  "scene": 0,  "nodes": [    {      "mesh": 0    },    {      "children": [        0      ]    }  ],  "bufferViews": [    {      "buffer": 0,      "byteOffset": 0,      "byteLength": 45504,      "target": 34962,      "byteStride": 12    },    {      "buffer": 0,      "byteOffset": 45504,      "byteLength": 45504,      "target": 34962,      "byteStride": 12    }  ],  "buffers": [    {      "byteLength": 91008,      "uri": "data:application/octet-stream;base64,"    }  ],  "accessors": [    {      "bufferView": 0,      "componentType": 5126,      "count": 3792,      "max": [        6.93009614944458,        16.432165145874023,        3.1810648441314697      ],      "min": [        -6.93009614944458,        -16.432167053222656,        -3.1810648441314697      ],      "type": "VEC3"    },    {      "bufferView": 1,      "componentType": 5126,      "count": 3792,      "max": [        1,        0.99969482421875,        0.999664306640625      ],      "min": [        -1,        -0.9959105253219604,        -0.999664306640625      ],      "type": "VEC3"    }  ],  "materials": [    {      "pbrMetallicRoughness": {        "baseColorFactor": [          0.6038273388475408,          0.6038273388475408,          0.6038273388475408,          1        ],        "metallicFactor": 0.5,        "roughnessFactor": 0.5      },      "doubleSided": true,      "name": "mat0"    }  ],  "meshes": [    {      "primitives": [        {          "mode": 4,          "attributes": {            "POSITION": 0,            "NORMAL": 1          },          "material": 0        }      ]    }  ]}