{  "asset": {    "version": "2.0",    "generator": "THREE.GLTFExporter"  },  "scenes": [    {      "name": "AuxScene",      "nodes": [        1      ]    }  ],  "scene": 0,  "nodes": [    {      "mesh": 0    },    {      "children": [        0      ]    }  ],  "bufferViews": [    {      "buffer": 0,      "byteOffset": 0,      "byteLength": 24192,      "target": 34962,      "byteStride": 12    },    {      "buffer": 0,      "byteOffset": 24192,      "byteLength": 24192,      "target": 34962,      "byteStride": 12    }  ],  "buffers": [    {      "byteLength": 48384,      "uri": "data:application/octet-stream;base64,"    }  ],  "accessors": [    {      "bufferView": 0,      "componentType": 5126,      "count": 2016,      "max": [        18.034557342529297,        36.36593246459961,        11.23310375213623      ],      "min": [        -18.034557342529297,        -36.36593246459961,        -11.23310375213623      ],      "type": "VEC3"    },    {      "bufferView": 1,      "componentType": 5126,      "count": 2016,      "max": [        0.9991455078125,        0.9971923232078552,        0.9980773329734802      ],      "min": [        -0.99908447265625,        -0.9960020780563354,        -0.9983214735984802      ],      "type": "VEC3"    }  ],  "materials": [    {      "pbrMetallicRoughness": {        "baseColorFactor": [          0.6038273388475408,          0.6038273388475408,          0.6038273388475408,          1        ],        "metallicFactor": 0.5,        "roughnessFactor": 0.5      },      "doubleSided": true,      "name": "mat0"    }  ],  "meshes": [    {      "primitives": [        {          "mode": 4,          "attributes": {            "POSITION": 0,            "NORMAL": 1          },          "material": 0        }      ]    }  ]}